<?xml version="1.0" encoding="utf-8"?>
<!-- Generator: Adobe Illustrator 24.0.0, SVG Export Plug-In . SVG Version: 6.00 Build 0)  -->
<svg version="1.1" id="Layer_1" xmlns="http://www.w3.org/2000/svg" xmlns:xlink="http://www.w3.org/1999/xlink" x="0px" y="0px"
	 viewBox="0 0 311.81 311.81" style="enable-background:new 0 0 311.81 311.81;" xml:space="preserve">
<style type="text/css">
	.st0{fill-rule:evenodd;clip-rule:evenodd;}
	.st1{fill-rule:evenodd;clip-rule:evenodd;fill:#ED1B2E;}
	.st2{fill-rule:evenodd;clip-rule:evenodd;fill:#FEDA00;}
	.st3{fill-rule:evenodd;clip-rule:evenodd;fill:#FFD520;}
</style>
<g>
	<path class="st0" d="M231.34,263.89l-5.52-12.26v-3.18h0.13c0.82,0,1.37,0.44,1.68,1.2l9.73,21.23c0.11,0.24,0.17,0.48,0.17,0.68
		c0,0.72-0.58,1.3-1.3,1.3c-0.65,0-1.1-0.45-1.33-0.99l-2.5-5.52h-6.57v-2.46H231.34z M225.83,251.64l-5.51,12.26h5.51v2.46h-6.57
		l-2.5,5.59c-0.24,0.58-0.69,0.92-1.3,0.92c-0.68,0-1.23-0.55-1.23-1.23c0-0.21,0.03-0.45,0.17-0.72l9.72-21.27
		c0.35-0.75,0.86-1.2,1.71-1.2V251.64z"/>
	<path class="st0" d="M229.25,291.16c2.45-0.07,4.04-1.42,4.04-3.41v-0.04c0-2.18-1.6-3.33-4.04-3.37v-1.62h0.01
		c3.51,0,5.8,1.86,5.8,4.92v0.04c0,3.25-2.63,4.97-5.81,5.07V291.16z M229.05,291.16h0.2v1.59h-0.28h-3.76v4.69
		c0,0.49-0.4,0.89-0.88,0.89c-0.47,0-0.86-0.4-0.86-0.89v-13.83c0-0.49,0.39-0.89,0.86-0.89h4.93v1.62h-0.12h-3.92v6.82H229.05z"/>
	<path class="st0" d="M236.57,295.79c0.6,0,1.04,0.44,1.04,1.04v0.44c0,0.6-0.44,1.06-1.04,1.06c-0.61,0-1.05-0.46-1.05-1.06v-0.44
		C235.51,296.22,235.96,295.79,236.57,295.79z"/>
	<path class="st0" d="M218.57,295.79c0.59,0,1.04,0.44,1.04,1.04v0.44c0,0.6-0.45,1.06-1.04,1.06c-0.63,0-1.07-0.46-1.07-1.06v-0.44
		C217.51,296.22,217.95,295.79,218.57,295.79z"/>
	<path class="st0" d="M57.29,249.92c0-0.75,0.61-1.37,1.33-1.37c0.75,0,1.37,0.62,1.37,1.37v21.58c0,0.75-0.62,1.37-1.37,1.37
		c-0.72,0-1.33-0.62-1.33-1.37V249.92z"/>
	<path class="st0" d="M67.01,249.96c0-0.72,0.62-1.34,1.34-1.34h0.31c0.58,0,0.99,0.31,1.27,0.72l8.56,12.88l8.56-12.88
		c0.28-0.44,0.72-0.72,1.27-0.72h0.31c0.72,0,1.33,0.62,1.33,1.34v21.54c0,0.75-0.61,1.37-1.33,1.37c-0.75,0-1.37-0.65-1.37-1.37
		v-17.88l-7.67,11.27c-0.31,0.44-0.65,0.68-1.13,0.68c-0.48,0-0.85-0.24-1.17-0.68l-7.64-11.23v17.88c0,0.75-0.58,1.33-1.33,1.33
		c-0.72,0-1.3-0.59-1.3-1.33V249.96z"/>
	<path class="st0" d="M105.69,261.77c3.79-0.12,6.25-2.21,6.25-5.27v-0.07c0-3.36-2.48-5.14-6.25-5.2v-2.5h0.02
		c5.4,0,8.97,2.88,8.97,7.6v0.07c0,5.02-4.07,7.69-8.99,7.84V261.77z M105.36,261.78l0.33-0.01v2.47l-0.43,0.01h-5.82v7.26
		c0,0.75-0.62,1.37-1.37,1.37c-0.72,0-1.33-0.62-1.33-1.37v-21.41c0-0.76,0.61-1.37,1.33-1.37h7.62v2.5h-0.19h-6.06v10.55H105.36z"
		/>
	<path class="st0" d="M129.68,260.96c3.59,0,6.16-1.86,6.16-4.94v-0.07c0-2.94-2.26-4.73-6.13-4.73h-0.63v-2.5h0.84
		c2.95,0,5.32,0.89,6.82,2.4c1.16,1.16,1.84,2.84,1.84,4.72v0.06c0,3.94-2.67,6.24-6.4,6.96l5.96,7.67
		c0.28,0.31,0.44,0.62,0.44,0.99c0,0.72-0.68,1.33-1.36,1.33c-0.55,0-0.96-0.31-1.27-0.72l-6.75-8.77h-0.12v-2.43H129.68z
		 M129.07,251.23h-6.76v9.73h6.76v2.43h-6.76v8.12c0,0.75-0.62,1.37-1.37,1.37c-0.72,0-1.34-0.62-1.34-1.37v-21.41
		c0-0.76,0.62-1.37,1.34-1.37h8.13V251.23z"/>
	<path class="st0" d="M144.36,271.33v-21.23c0-0.76,0.61-1.37,1.34-1.37h14.89c0.69,0,1.24,0.55,1.24,1.23
		c0,0.69-0.55,1.24-1.24,1.24h-13.52v8.17h11.98c0.69,0,1.24,0.58,1.24,1.23c0,0.69-0.55,1.23-1.24,1.23h-11.98v8.4h13.7
		c0.68,0,1.23,0.54,1.23,1.23c0,0.68-0.55,1.23-1.23,1.23H145.7C144.98,272.7,144.36,272.08,144.36,271.33z"/>
	<path class="st0" d="M167.31,249.96c0-0.72,0.62-1.34,1.34-1.34h0.37c0.62,0,0.99,0.31,1.37,0.79l14.56,18.56v-18.08
		c0-0.72,0.59-1.33,1.34-1.33c0.72,0,1.3,0.62,1.3,1.33v21.65c0,0.72-0.51,1.27-1.23,1.27h-0.13c-0.58,0-1-0.34-1.41-0.82
		l-14.86-19.01v18.56c0,0.72-0.59,1.33-1.34,1.33c-0.72,0-1.3-0.62-1.3-1.33V249.96z"/>
	<path class="st0" d="M193.5,269.81c-0.31-0.2-0.51-0.58-0.51-1.02c0-0.75,0.58-1.34,1.3-1.34c0.35,0,0.65,0.14,0.83,0.31
		c2.25,1.91,4.51,2.84,7.56,2.84c3.22,0,5.34-1.71,5.34-4.07v-0.08c0-2.22-1.2-3.49-6.23-4.55c-5.52-1.2-8.05-2.98-8.05-6.92v-0.07
		c0-3.76,3.32-6.54,7.88-6.54c3.15,0,5.44,0.79,7.63,2.36c0.28,0.21,0.58,0.59,0.58,1.11c0,0.71-0.58,1.3-1.3,1.3
		c-0.31,0-0.55-0.07-0.79-0.24c-2.02-1.47-3.97-2.08-6.19-2.08c-3.12,0-5.11,1.71-5.11,3.86v0.07c0,2.26,1.23,3.52,6.51,4.65
		c5.34,1.17,7.8,3.12,7.8,6.78v0.07c0,4.11-3.41,6.78-8.18,6.78C199.08,273.04,196.18,271.95,193.5,269.81z"/>
	<path class="st0" d="M56.65,283.52c0-0.46,0.39-0.86,0.86-0.86h0.24c0.4,0,0.65,0.2,0.89,0.51l9.41,12v-11.69
		c0-0.46,0.37-0.86,0.86-0.86c0.46,0,0.84,0.4,0.84,0.86v14c0,0.46-0.33,0.82-0.8,0.82h-0.09c-0.38,0-0.64-0.22-0.91-0.53
		l-9.61-12.29v12c0,0.46-0.37,0.86-0.86,0.86c-0.47,0-0.84-0.4-0.84-0.86V283.52z"/>
	<path class="st0" d="M84.16,292.53l-3.56-7.93v-2.06h0.08c0.53,0,0.88,0.29,1.09,0.78l6.29,13.73c0.07,0.16,0.11,0.3,0.11,0.45
		c0,0.46-0.38,0.84-0.84,0.84c-0.42,0-0.71-0.29-0.86-0.64l-1.62-3.57h-4.25v-1.59H84.16z M80.59,284.61l-3.57,7.93h3.57v1.59h-4.25
		l-1.61,3.61c-0.16,0.38-0.45,0.61-0.85,0.61c-0.44,0-0.8-0.35-0.8-0.8c0-0.13,0.03-0.29,0.11-0.46l6.29-13.75
		c0.22-0.49,0.55-0.78,1.11-0.78V284.61z"/>
	<path class="st0" d="M90.02,290.51v-0.04c0-4.38,3.28-8.01,7.84-8.01c2.51,0,4.1,0.82,5.54,2.01c0.18,0.16,0.36,0.4,0.36,0.72
		c0,0.47-0.42,0.87-0.88,0.87c-0.25,0-0.45-0.12-0.58-0.2c-1.19-1.07-2.54-1.77-4.44-1.77c-3.44,0-6,2.79-6,6.35v0.04
		c0,3.59,2.59,6.4,6,6.4c1.92,0,3.27-0.67,4.6-1.89c0.13-0.13,0.33-0.24,0.55-0.24c0.45,0,0.84,0.4,0.84,0.84
		c0,0.26-0.13,0.49-0.29,0.62c-1.52,1.4-3.21,2.28-5.75,2.28C93.32,298.48,90.02,294.97,90.02,290.51z"/>
	<path class="st0" d="M107.21,283.5c0-0.48,0.4-0.89,0.86-0.89c0.5,0,0.89,0.4,0.89,0.89v13.95c0,0.49-0.4,0.89-0.89,0.89
		c-0.46,0-0.86-0.4-0.86-0.89V283.5z"/>
	<path class="st0" d="M126.81,290.51v-0.04c0-3.51-2.56-6.38-6.09-6.39v-1.62h0.02c4.72,0,7.89,3.7,7.89,7.97v0.04
		c0,4.27-3.21,8.01-7.91,8.02v-1.61h0.02C124.28,296.87,126.81,294.04,126.81,290.51z M120.72,284.07h-0.02
		c-3.54,0-6.07,2.83-6.07,6.35v0.04c0,3.51,2.56,6.4,6.09,6.4v1.61h-0.02c-4.72,0-7.88-3.69-7.88-7.97v-0.04c0-4.27,3.2-8,7.91-8.01
		V284.07z"/>
	<path class="st0" d="M132.32,283.52c0-0.46,0.4-0.86,0.86-0.86h0.24c0.4,0,0.65,0.2,0.89,0.51l9.41,12v-11.69
		c0-0.46,0.38-0.86,0.87-0.86c0.46,0,0.84,0.4,0.84,0.86v14c0,0.46-0.33,0.82-0.79,0.82h-0.09c-0.38,0-0.64-0.22-0.91-0.53
		l-9.61-12.29v12c0,0.46-0.37,0.86-0.86,0.86c-0.47,0-0.84-0.4-0.84-0.86V283.52z"/>
	<path class="st0" d="M159.82,292.53l-3.56-7.93v-2.06h0.09c0.53,0,0.88,0.29,1.08,0.78l6.29,13.73c0.06,0.16,0.11,0.3,0.11,0.45
		c0,0.46-0.38,0.84-0.84,0.84c-0.42,0-0.71-0.29-0.86-0.64l-1.61-3.57h-4.25v-1.59H159.82z M156.26,284.61L156.26,284.61l-3.57,7.93
		h3.57v1.59H152l-1.61,3.61c-0.16,0.38-0.45,0.61-0.84,0.61c-0.44,0-0.8-0.35-0.8-0.8c0-0.13,0.02-0.29,0.11-0.46l6.29-13.75
		c0.22-0.49,0.55-0.78,1.11-0.78l0,0V284.61z"/>
	<path class="st0" d="M167.17,283.5c0-0.48,0.4-0.89,0.87-0.89c0.49,0,0.89,0.4,0.89,0.89v13.11h8.04c0.44,0,0.8,0.37,0.8,0.82
		c0,0.45-0.36,0.8-0.8,0.8h-8.92c-0.46,0-0.87-0.4-0.87-0.89V283.5z"/>
	<path class="st0" d="M186.66,291.56c0-0.46,0.4-0.89,0.88-0.89h4.61c0.48,0,0.88,0.43,0.88,0.89c0,0.49-0.4,0.91-0.88,0.91h-4.61
		C187.06,292.46,186.66,292.05,186.66,291.56z"/>
	<path class="st0" d="M203.21,297.33v-13.73c0-0.49,0.39-0.89,0.86-0.89h9.63c0.45,0,0.8,0.35,0.8,0.8c0,0.45-0.35,0.8-0.8,0.8
		h-8.75v5.29h7.75c0.43,0,0.8,0.38,0.8,0.8c0,0.45-0.37,0.8-0.8,0.8h-7.75v5.43h8.86c0.44,0,0.8,0.35,0.8,0.79
		c0,0.45-0.35,0.8-0.8,0.8h-9.75C203.6,298.23,203.21,297.82,203.21,297.33z"/>
</g>
<path class="st1" d="M77.25,60.14c12.92,0,23.4-10.48,23.4-23.4c0-12.93-10.48-23.4-23.4-23.4c-12.93,0-23.4,10.48-23.4,23.4
	C53.85,49.66,64.33,60.14,77.25,60.14z"/>
<path class="st2" d="M56.45,68.51l31.7,0.21C71.75,66.58,56.45,68.51,56.45,68.51z"/>
<path class="st1" d="M109.73,195.59c-5.02-7.36-8.4-15.94-9.6-25.19l-0.37-0.97l0.22-0.13c-0.17-1.6-0.29-3.21-0.33-4.84
	c-0.16-0.95-0.25-1.92-0.28-2.9c-0.03-0.14-0.06-0.26-0.09-0.4v-2.54c0-3.1,0-11.11,0-20.46c0-7.03,0-20.22,0-33.28
	c0-0.47-0.01-0.93-0.03-1.38c-1-31-35.62-34.58-42.81-34.98c0.68,14.07-1.22,90.35,0.67,102.16c1.77,11.11,6.44,20.51,12.21,28.11
	c7.81,10.28,19.39,19.8,35.01,23.76c3.4,0.86,6.98,1.46,10.76,1.75c4.78,0.3,9.14,0.19,13.14-0.25c3.67-0.43,7.15-1.15,10.44-2.13
	c0.4-0.12,0.79-0.24,1.18-0.37c1.78-0.59,3.45-1.25,5.02-1.98C130.33,216.27,117.87,207.53,109.73,195.59z"/>
<path class="st1" d="M100.34,221.15c1.31,0.43,2.67,0.83,4.07,1.18c3.45,0.88,7.05,1.46,10.71,1.74c1.77,0.11,3.53,0.17,5.24,0.17
	l0,0c2.69,0,5.34-0.15,7.86-0.42c3.57-0.42,7.07-1.13,10.4-2.12c0.39-0.11,0.78-0.24,1.16-0.36c1.56-0.52,3.04-1.09,4.44-1.71
	c-14.13-3.37-26.42-11.84-34.66-23.92c-4.61-6.75-7.76-14.49-9.21-22.52v-2.81c1.16,8.95,4.47,17.63,9.57,25.09
	c8.3,12.17,20.74,20.65,35.02,23.89l0.62,0.14l-0.57,0.26c-1.58,0.72-3.27,1.39-5.04,1.98c-0.41,0.13-0.8,0.25-1.19,0.37
	c-3.35,0.99-6.87,1.71-10.47,2.13c-2.53,0.28-5.2,0.43-7.91,0.43l0,0c-1.71,0-3.49-0.06-5.27-0.18c-3.68-0.28-7.32-0.87-10.79-1.74
	c-1.35-0.34-2.67-0.73-3.96-1.15V221.15z M56.67,68.73c0.25,5.66,0.13,20.16-0.01,36.91c-0.22,25.74-0.48,57.79,0.66,64.98
	c1.62,10.08,5.71,19.51,12.17,28.02c5.85,7.71,15.81,17.56,30.84,22.51v0.45c-15.21-4.97-25.27-14.92-31.18-22.7
	c-6.51-8.58-10.63-18.07-12.26-28.21c-1.15-7.24-0.9-37.96-0.67-65.06c0.15-16.99,0.27-31.66,0-37.13l-0.01-0.24l0.24,0.01
	c7.01,0.4,42,3.96,43.02,35.19c0.02,0.46,0.02,0.92,0.02,1.4v56.27c0.01,0.06,0.03,0.12,0.04,0.18c0.02,0.06,0.04,0.12,0.05,0.18
	c0.02,0.98,0.11,1.94,0.28,2.92c0.04,1.61,0.16,3.23,0.33,4.85l0.02,0.14l-0.19,0.11l0.31,0.85v0.01v2.81
	c-0.16-0.91-0.3-1.83-0.42-2.75l-0.43-1.12l0.27-0.16c-0.17-1.58-0.29-3.17-0.32-4.71c-0.16-0.96-0.25-1.95-0.28-2.9l-0.04-0.13
	c-0.02-0.07-0.03-0.14-0.05-0.21l0-0.05v-56.28c0-0.47-0.01-0.92-0.03-1.38C98.06,72.98,64.13,69.19,56.67,68.73z"/>
<path class="st3" d="M155.73,202.04v-14.67c-11.47-3.5-25.85-12.61-26.66-36.16c-0.02-0.66-0.03-1.33-0.03-2.01v-21.37v-27.43V88.68
	v-5.16c-2.32-0.76-4.52-1.3-6.46-1.67c-4.43-0.83-7.48-0.84-7.48-0.84c-6.43-7.61-17.55-11.07-28.4-12.5H56.45
	c7.18,0.41,41.81,3.98,42.81,34.98c0.02,0.45,0.03,0.92,0.03,1.38c0,13.07,0,26.25,0,33.28c0,9.35,0,17.36,0,20.46v2.54
	c0.02,0.13,0.06,0.26,0.09,0.4c0.03,0.98,0.12,1.95,0.28,2.9c0.04,1.63,0.16,3.23,0.33,4.84l-0.22,0.13l0.37,0.97
	c1.2,9.25,4.58,17.83,9.6,25.19c8.13,11.92,20.58,20.65,35.11,23.96C155.7,213.84,155.73,202.04,155.73,202.04z"/>
<path class="st0" d="M236.01,152c-1.67-10.48-6.08-19.36-11.53-26.54c-7.01-9.24-17.26-17.82-30.94-21.86
	c-5.24-1.55-10.99-2.42-17.25-2.42c-0.12,0-0.22,0-0.33,0c-0.1,0-0.21,0-0.32,0c-7.46,0-14.18,1.25-20.19,3.39
	c-0.86,0.3-1.71,0.62-2.55,0.96c-2.12-5.87-5.39-10.34-9.14-13.73c-1.57-1.42-3.23-2.65-4.92-3.71c-5.65-3.59-11.69-5.36-16.26-6.24
	c-4.43-0.83-7.48-0.84-7.48-0.84v20.17v11.71v27.43v21.36c0,0.68,0.01,1.35,0.03,2.01c1.32,38.34,40.31,38.34,40.31,38.34
	c0.1,0,0.19,0,0.29,0c0-5.62,0-4.23,0-19.33c0-8.83,0-16.4,0-19.32v-2.39c0.03-0.13,0.06-0.25,0.09-0.37
	c0.25-10.72,9.01-19.34,19.79-19.35v0.01c0.12-0.01,0.24-0.01,0.35-0.01c0.12,0,0.23,0,0.35,0.01v-0.01
	c10.79,0.01,19.54,8.63,19.79,19.35c0.04,0.12,0.06,0.25,0.09,0.37v2.39c0,2.92,0,10.49,0,19.32c0,5.28,0,11.57,0,17.77
	c3.64,21.94,36.12,25.98,40.12,26.39c0.11,0,0.22,0,0.33,0C235.99,213.71,237.8,163.18,236.01,152z"/>
</svg>
